<svg version="1.1" id="Layer_1" xmlns="http://www.w3.org/2000/svg" xmlns:xlink="http://www.w3.org/1999/xlink" x="0px" y="0px"
	 width="100%" viewBox="0 0 656 1024" enable-background="new 0 0 656 1024" xml:space="preserve">
<path fill="#000000" opacity="1.000000" stroke="none" 
	d="
M657.000000,72.532059 
	C640.202209,90.699303 618.424927,97.246193 595.200806,100.175896 
	C567.306641,103.694717 539.347107,102.454147 511.404144,100.544586 
	C507.261322,100.261482 503.109009,100.117218 498.897125,100.150749 
	C506.150574,102.287270 513.602417,103.554131 521.051941,104.919319 
	C528.936768,106.364311 536.904053,106.942162 544.855469,107.606834 
	C552.648010,108.258232 560.481812,108.598183 568.301880,108.685951 
	C576.286255,108.775566 584.281921,109.089226 592.264404,108.114098 
	C599.972351,107.172508 607.721863,106.570976 616.152710,105.752106 
	C613.697998,113.650513 609.236633,119.495834 603.693176,124.555435 
	C593.337646,134.006989 580.772034,138.529678 567.106445,140.283096 
	C546.088318,142.979919 525.234009,140.810913 504.445221,137.748154 
	C493.619446,136.153214 482.840149,134.242661 471.974579,132.778946 
	C497.484100,142.847580 524.002075,148.451859 552.909607,149.530853 
	C547.566589,156.843781 542.090210,161.253525 535.773560,164.664185 
	C517.883057,174.324020 498.984253,173.986938 479.830811,169.892288 
	C468.300720,167.427368 456.950043,164.213089 445.628723,160.704971 
	C457.817963,170.701553 472.230988,175.978256 487.105499,179.836166 
	C487.076782,182.677643 485.191589,183.384338 483.725342,184.335693 
	C473.894745,190.714188 463.079102,192.297745 451.652649,190.785553 
	C435.804321,188.688202 421.936737,181.294495 407.898865,174.376022 
	C396.991425,169.000366 385.677612,165.378998 373.326263,166.038910 
	C370.402802,166.195099 368.521881,165.421402 368.603333,161.935226 
	C368.852356,151.274719 368.978149,140.611099 369.107758,129.948151 
	C369.154785,126.080887 370.765381,124.315681 374.811829,123.303169 
	C389.608002,119.600822 401.114258,111.447472 407.370758,97.001724 
	C408.958954,93.334686 410.832977,89.744675 411.974304,85.938934 
	C417.089813,68.880898 429.675262,61.461708 446.160370,58.681313 
	C456.663116,56.909908 467.070557,58.061241 477.515839,59.052223 
	C495.572296,60.765297 513.610046,62.658939 531.725952,63.740845 
	C549.872437,64.824570 568.035217,65.200043 586.180298,64.565147 
	C609.827698,63.737751 633.307007,61.183125 656.658447,55.153183 
	C657.000000,60.688042 657.000000,66.376083 657.000000,72.532059 
z"/>
<path fill="#000000" opacity="1.000000" stroke="none" 
	d="
M292.511475,694.633911 
	C252.650879,683.967773 218.847366,664.477356 194.115067,631.276611 
	C176.192810,607.217712 166.102890,579.978149 163.615005,550.037354 
	C158.177658,484.600922 183.093918,431.751190 231.155441,388.792480 
	C258.951904,363.947235 291.262665,345.875183 323.901489,328.358734 
	C343.423645,317.881714 363.059448,307.554626 380.287170,293.360077 
	C386.480286,288.257355 392.346741,282.840179 397.005798,276.253418 
	C415.171906,250.570953 404.673981,219.451935 374.471710,210.613174 
	C368.717285,208.929108 367.168793,206.454086 367.588257,200.949768 
	C368.068176,194.651688 367.773651,188.292511 367.762085,181.959976 
	C367.756714,179.015152 368.836121,177.692734 372.027863,178.225494 
	C395.327606,182.114655 414.789581,192.660004 429.474701,211.385620 
	C448.280365,235.365509 445.765564,272.951782 428.424438,297.554840 
	C414.352570,317.519592 395.297028,331.536682 374.899506,344.113861 
	C349.094452,360.025452 322.058350,373.869690 296.780579,390.668976 
	C269.597046,408.734833 244.694901,429.380615 228.288895,458.093750 
	C201.684067,504.656525 197.817017,552.763184 225.062164,600.183350 
	C244.997940,634.881653 277.286560,653.442078 316.232117,660.634766 
	C337.582672,664.577942 359.055908,664.995789 380.156219,659.530151 
	C422.571594,648.543152 452.650818,622.854675 467.948547,581.584839 
	C478.161224,554.033325 478.154785,525.558838 465.861542,498.764648 
	C448.378815,460.659607 417.299408,442.260712 375.431213,442.056000 
	C369.424774,442.026642 363.474152,442.596283 357.567963,443.744446 
	C354.491669,444.342468 353.053925,445.835846 353.026520,449.147644 
	C352.963043,456.806610 352.468414,464.461243 352.352478,472.120697 
	C351.890961,502.607635 351.543701,533.096252 351.084595,563.583191 
	C350.665649,591.403259 350.093506,619.221191 349.760925,647.042053 
	C349.714935,650.888550 348.592346,652.571045 344.612793,652.329163 
	C340.960510,652.107056 337.274689,652.142700 333.619324,652.346375 
	C329.929108,652.551941 328.668793,651.020752 328.643524,647.386047 
	C328.578735,638.061646 328.091248,628.740845 327.958679,619.416016 
	C327.480164,585.761475 327.305969,552.100830 326.558228,518.452637 
	C326.139893,499.629700 325.635376,480.812195 325.609009,461.983704 
	C325.605774,459.664337 325.436737,457.336121 324.070587,454.383636 
	C307.023956,463.266541 294.616364,476.250854 286.451874,493.405609 
	C278.192474,510.759888 275.255371,528.878906 279.279907,547.826660 
	C283.212189,566.340332 292.236816,582.185669 305.354126,596.087097 
	C300.352875,595.660095 296.126648,593.608276 292.116241,591.284241 
	C271.118347,579.116150 259.714935,560.159790 254.764908,537.018982 
	C244.532959,489.185547 270.607178,441.408752 316.321777,419.153900 
	C322.870636,415.965790 325.780975,412.558807 324.769409,405.341766 
	C324.033356,400.090485 324.229187,394.707733 324.026520,389.382965 
	C323.947815,387.315338 324.168610,385.402344 326.284180,384.239197 
	C334.603394,379.665375 342.894958,375.041199 351.218170,370.474701 
	C351.751099,370.182251 352.465088,370.219788 353.684143,369.995270 
	C353.684143,382.269165 353.684143,394.274963 353.684143,406.863708 
	C359.984131,406.376617 365.698334,405.728119 371.428375,405.524628 
	C415.924805,403.944519 453.938171,418.234589 483.480347,452.278046 
	C503.335938,475.158966 512.498962,502.360474 514.399292,532.330505 
	C516.883972,571.515869 505.924744,606.577087 481.130371,636.812439 
	C453.885986,670.035400 418.686188,690.204529 376.172089,697.370544 
	C368.448425,698.672424 360.700958,699.697388 352.890472,700.145630 
	C350.067535,700.307678 349.185364,701.603943 349.117767,704.219482 
	C348.937042,711.210938 348.464752,718.196228 348.353455,725.187866 
	C347.868195,755.674683 347.513275,786.163574 347.029541,816.650391 
	C346.426880,854.630066 345.833832,892.610229 345.056030,930.586548 
	C344.697998,948.067322 343.913086,965.539551 343.310333,983.015198 
	C343.276001,984.010742 343.293976,985.049072 343.015778,985.986816 
	C342.437500,987.935730 341.670563,990.020691 339.131378,989.794617 
	C336.992279,989.604126 336.077698,987.804016 335.844299,985.912231 
	C335.416718,982.445801 335.018066,978.953674 334.963684,975.466797 
	C334.472504,943.981262 334.399353,912.485168 333.541077,881.010254 
	C332.306061,835.715332 331.268250,790.419861 330.458405,745.115479 
	C330.223328,731.963440 329.708893,718.805115 329.714783,705.645630 
	C329.716400,702.051636 328.986328,700.342529 324.881256,699.970581 
	C314.118683,698.995361 303.397247,697.503235 292.511475,694.633911 
z"/>
<path fill="#000000" opacity="1.000000" stroke="none" 
	d="
M138.929993,162.172485 
	C134.415802,158.851700 130.045166,155.882309 126.768539,150.086121 
	C153.879623,148.076401 179.613907,143.701630 204.110931,133.257050 
	C200.509567,133.781982 196.903580,134.277435 193.308090,134.839951 
	C189.527924,135.431366 185.764008,136.127213 181.982285,136.707809 
	C162.047318,139.768478 142.034454,142.351608 121.830254,141.162186 
	C105.542030,140.203308 89.718971,137.122147 76.605728,126.251907 
	C70.233498,120.969635 65.636948,114.415382 61.934826,105.662277 
	C102.128029,110.738358 141.037033,110.009827 179.461899,100.363220 
	C157.198471,101.267479 134.957520,102.953491 112.659439,102.196037 
	C92.479301,101.510521 72.433601,99.674507 53.219952,92.832443 
	C42.631390,89.061813 32.635700,84.189552 24.516895,76.129395 
	C18.470039,70.126221 14.510594,63.001354 12.585942,54.990646 
	C13.769071,53.440502 14.955265,53.761482 16.070248,54.034592 
	C55.044380,63.581196 94.692291,65.837158 134.600845,64.556747 
	C157.725433,63.814819 180.774628,61.698814 203.758469,58.984978 
	C216.220245,57.513542 228.609604,56.853642 240.893906,60.557888 
	C253.083755,64.233650 261.482574,71.703346 265.769257,83.787750 
	C267.380096,88.328766 269.272095,92.775932 271.172699,97.207199 
	C277.564392,112.109375 289.595551,119.965378 304.801910,123.533455 
	C308.021698,124.288948 309.276093,125.595024 309.332306,128.832077 
	C309.517365,139.486481 309.796265,150.141953 310.259766,160.787415 
	C310.430450,164.708298 308.984253,166.259613 305.087219,166.044128 
	C291.854858,165.312469 279.813873,169.248856 268.319794,175.468155 
	C255.379425,182.470016 242.013626,188.449295 227.314255,190.706879 
	C216.087341,192.431137 205.423645,190.736633 195.591431,184.803528 
	C193.686005,183.653717 193.709000,183.615616 191.822815,180.473587 
	C207.037659,175.570297 221.980286,170.225739 235.270660,159.361435 
	C219.677246,164.972336 204.786255,169.661255 189.254761,171.691193 
	C171.630417,173.994629 154.674255,172.084030 138.929993,162.172485 
z"/>
<path fill="#000000" opacity="1.000000" stroke="none" 
	d="
M255.622391,250.825989 
	C240.568695,251.474579 234.703506,242.571289 241.441956,229.785751 
	C247.662796,217.982315 253.833984,206.120651 265.464417,198.390076 
	C269.256317,195.869644 273.234497,193.740814 277.535065,192.475372 
	C290.476013,188.667557 302.863007,183.114304 316.066132,180.192123 
	C319.411102,179.451797 320.799744,178.137314 320.674683,174.542496 
	C319.973785,154.400879 319.440826,134.252991 318.959320,114.104645 
	C318.894958,111.412010 317.489136,109.949394 315.612823,108.387001 
	C303.753143,98.511459 299.016846,85.898697 302.883301,70.914749 
	C306.750488,55.927906 316.629700,46.482494 331.919037,43.156994 
	C348.486328,39.553528 365.828278,48.274490 372.966644,63.646244 
	C380.318939,79.478607 375.993256,98.420090 362.361542,108.637978 
	C359.656372,110.665680 359.128265,112.882195 359.087677,115.845261 
	C358.772797,138.836670 358.429871,161.827911 358.003082,184.817505 
	C357.381561,218.296158 356.697266,251.773666 355.995972,285.250763 
	C355.919312,288.909760 355.456390,292.560242 355.362946,296.219543 
	C355.309723,298.304169 354.431000,299.731689 352.713593,300.684692 
	C343.685974,305.694061 334.644806,310.679047 325.589905,315.638794 
	C325.209839,315.846985 324.646210,315.719971 323.131714,315.812256 
	C322.485992,281.214508 321.842438,246.732330 321.181793,211.336517 
	C314.588623,213.593765 308.622345,215.542892 306.287781,221.142227 
	C300.249023,235.625839 288.088654,241.733231 274.456482,246.235565 
	C268.442566,248.221817 262.335297,249.860062 255.622391,250.825989 
z"/>
</svg>